<?xml version="1.0" standalone="yes"?>

<svg version="1.1" viewBox="0.0 0.0 960.0 720.0" fill="none" stroke="none" stroke-linecap="square" stroke-miterlimit="10" xmlns="http://www.w3.org/2000/svg" xmlns:xlink="http://www.w3.org/1999/xlink"><clipPath id="p.0"><path d="m0 0l960.0 0l0 720.0l-960.0 0l0 -720.0z" clip-rule="nonzero"></path></clipPath><g clip-path="url(#p.0)"><path fill="#000000" fill-opacity="0.0" d="m0 0l960.0 0l0 720.0l-960.0 0z" fill-rule="nonzero"></path><path fill="#cfe2f3" d="m1.7007874 -8.446127l956.5984 0l0 728.4409l-956.5984 0z" fill-rule="nonzero"></path><path stroke="#000000" stroke-width="1.0" stroke-linejoin="round" stroke-linecap="butt" d="m1.7007874 -8.446127l956.5984 0l0 728.4409l-956.5984 0z" fill-rule="nonzero"></path><path fill="#00ff00" d="m418.63422 193.25385l-1.8455505 6.2868958l27.64328 8.114685l-13.793518 46.988174l11.103088 3.2593231l13.793518 -46.98819l27.757751 8.148285l1.8455505 -6.2868958z" fill-rule="evenodd"></path><path fill="#00ff00" d="m495.21124 215.73303l-15.639069 53.275055l10.301819 3.024109l6.1980286 -21.113785c0.88900757 -3.028366 2.1582947 -5.234604 3.8078918 -6.618698c1.6495972 -1.3841095 3.9631348 -2.1829681 6.940674 -2.396576c2.9926147 -0.2179718 6.015106 0.12106323 9.067535 1.0170898c4.0825806 1.1984558 7.017395 2.8713531 8.804565 5.018692c1.8022461 2.1430206 2.2232666 4.8498383 1.2631836 8.120468l-7.1794434 24.457123l10.301819 3.024109l7.1794434 -24.457123c1.1094971 -3.7794037 1.2371826 -6.873352 0.38323975 -9.28183c-0.8413086 -2.40477 -2.756897 -4.6556244 -5.746887 -6.7525635c-2.9876099 -2.1050262 -6.732544 -3.8183594 -11.234802 -5.1400146c-7.3257446 -2.150467 -13.911591 -2.1627655 -19.757446 -0.036880493l5.6112976 -19.115067z" fill-rule="evenodd"></path><path fill="#00ff00" d="m579.8342 261.4153c5.227234 1.5344543 9.111694 4.043091 11.653381 7.52594c1.6601562 2.2504272 2.2426758 5.06604 1.7475586 8.446869l-33.938843 -9.962769c1.3319092 -3.2667236 3.9019165 -5.4332275 7.709961 -6.4995117c3.8207397 -1.0625305 8.09668 -0.89938354 12.827942 0.48947144zm1.4643555 -5.4119873c-8.394104 -2.4640808 -15.750122 -2.6761627 -22.068054 -0.63623047c-6.317932 2.0399475 -10.429932 6.306305 -12.3359375 12.799133c-1.84198 6.2747803 -0.6729126 11.915985 3.507141 16.923553c4.1951294 5.0032654 10.737732 8.809723 19.627869 11.419434c7.058655 2.072052 13.178223 2.6843262 18.358765 1.836731c5.180481 -0.8475647 9.189819 -2.9994507 12.027832 -6.4556274l-10.399841 -3.9607544c-2.375122 2.3026733 -5.083008 3.6918945 -8.123657 4.1676636c-3.0407104 0.47576904 -6.449707 0.15924072 -10.227051 -0.9496155c-5.074585 -1.489624 -8.979126 -3.859436 -11.713501 -7.109375c-2.734375 -3.249939 -3.670044 -7.0507812 -2.8070068 -11.402496l45.328125 13.306061c0.26568604 -0.7640686 0.45550537 -1.3399048 0.5692749 -1.7275391c1.8704224 -6.3716736 0.7457886 -12.070007 -3.3739014 -17.09497c-4.11969 -5.0249634 -10.243042 -8.730286 -18.370056 -11.115967z" fill-rule="evenodd"></path><path fill="#00ff00" d="m216.52982 230.764l-1.8455353 6.2868958l27.64328 8.114685l-13.793533 46.98819l11.103088 3.2593079l13.793549 -46.988174l27.757751 8.14827l1.84552 -6.2868805z" fill-rule="evenodd"></path><path fill="#00ff00" d="m321.95734 298.5396l-0.70407104 2.398468c-0.8463135 2.8830261 -2.0396423 4.9010315 -3.579956 6.054077c-2.0117188 1.4883118 -4.7252502 2.3320312 -8.1405945 2.5311584c-3.4129333 0.19107056 -7.103485 -0.2958374 -11.071594 -1.4606628c-4.0062866 -1.1760559 -6.8816223 -2.6516724 -8.626068 -4.4268494c-1.73172 -1.7714233 -2.3415527 -3.5293274 -1.8294983 -5.2736816c0.33425903 -1.1386719 1.1146545 -2.0323486 2.341156 -2.6810303c1.2288513 -0.6567688 2.7919922 -0.9698181 4.689331 -0.93911743c1.8973694 0.030670166 5.020569 0.47381592 9.369537 1.3294373c7.6775208 1.5169067 13.528107 2.3396606 17.551758 2.4682007zm-7.206909 -23.943573c-5.2272034 -1.5344543 -9.958832 -2.427826 -14.194824 -2.6801147c-4.2336426 -0.26037598 -7.6474304 0.1453247 -10.241425 1.2171326c-2.5916138 1.0637207 -4.747101 2.8299866 -6.466461 5.298828l9.816864 3.829071c1.9101562 -2.4128418 4.173889 -3.8184204 6.7911987 -4.2167053c2.6323853 -0.40264893 6.3714294 0.10723877 11.217102 1.5296936c5.189087 1.5232544 8.883057 3.4102173 11.081909 5.6608887c1.625885 1.661438 2.0476685 3.8246155 1.2653503 6.4895935c-0.07110596 0.24227905 -0.25732422 0.80599976 -0.55862427 1.6911926c-4.1860046 -0.28146362 -10.530334 -1.3280945 -19.03302 -3.139862c-4.175049 -0.8835144 -7.323456 -1.4524841 -9.445221 -1.7069092c-2.8894043 -0.3218994 -5.5729065 -0.33337402 -8.050568 -0.03439331c-2.4649048 0.30270386 -4.6077576 1.0376282 -6.4284973 2.204834c-1.8056946 1.1628418 -2.9859009 2.6891174 -3.540619 4.578827c-0.94589233 3.2221985 0.06982422 6.3974304 3.0471497 9.525696c2.9796753 3.1202087 7.808075 5.6603394 14.485199 7.6204224c4.0444336 1.1872253 7.952606 1.8739624 11.724487 2.0601807c3.784607 0.18997192 7.8869324 -0.18466187 12.306946 -1.1239319c-0.22817993 1.9066162 -0.0072021484 3.6950989 0.6628723 5.3654175l10.759705 3.1585083c-0.86346436 -1.8586426 -1.2818604 -3.6568298 -1.255249 -5.394562c0.04171753 -1.7420654 0.95510864 -5.653595 2.7401733 -11.734558l2.5603027 -8.72171c0.8534241 -2.9072266 1.2720032 -4.9684753 1.2557678 -6.183716c-0.084198 -1.9719849 -0.7175293 -3.7674866 -1.8999939 -5.3864746c-1.1800842 -1.6270447 -3.2779236 -3.3042297 -6.293518 -5.0315247c-3.0155945 -1.7272949 -7.11792 -3.3525696 -12.307007 -4.875824z" fill-rule="evenodd"></path><path fill="#00ff00" d="m358.0657 272.3119l-15.639099 53.275055l10.301849 3.024109l15.639069 -53.275085z" fill-rule="evenodd"></path><path fill="#00ff00" d="m403.77057 306.56976c5.227234 1.5344543 9.111694 4.043091 11.653381 7.52594c1.6601868 2.2504272 2.2427063 5.06604 1.7475891 8.446869l-33.938843 -9.962769c1.3319397 -3.2667542 3.9019165 -5.433258 7.709961 -6.4995117c3.8207092 -1.0625305 8.09671 -0.89938354 12.827911 0.48947144zm1.464386 -5.4119873c-8.3940735 -2.4640808 -15.750122 -2.676178 -22.068054 -0.63623047c-6.3179626 2.039917 -10.429932 6.306305 -12.335907 12.799133c-1.84198 6.2747803 -0.67297363 11.915955 3.5071106 16.923553c4.1951294 5.0032654 10.737762 8.809723 19.627869 11.419434c7.058655 2.072052 13.178253 2.6842957 18.358765 1.836731c5.1805115 -0.8475952 9.189789 -2.9994507 12.027863 -6.4556274l-10.399872 -3.9607544c-2.375122 2.3026733 -5.083008 3.691864 -8.123688 4.1676636c-3.0406494 0.47576904 -6.449646 0.15924072 -10.22699 -0.9496155c-5.0746155 -1.4896545 -8.979126 -3.859436 -11.713501 -7.109375c-2.7344055 -3.249939 -3.6700745 -7.0507812 -2.8070374 -11.402496l45.328125 13.306061c0.26571655 -0.7640686 0.45547485 -1.3399048 0.5692749 -1.7275391c1.8704224 -6.371704 0.7457886 -12.070007 -3.3739014 -17.09497c-4.11969 -5.0249634 -10.243042 -8.730286 -18.370056 -11.115967z" fill-rule="evenodd"></path><path fill="#00ff00" d="m501.11234 335.1839c5.0746155 1.4896545 8.954651 3.9663086 11.640106 7.4299316c2.7005615 3.45932 3.3503418 7.5753174 1.9492798 12.348022c-1.4863892 5.063446 -4.2901917 8.332306 -8.411407 9.806641c-4.1211853 1.4743042 -8.73819 1.461029 -13.850952 -0.03982544c-5.1509094 -1.5120544 -9.063934 -3.993988 -11.739075 -7.4458313c-2.6727295 -3.4599 -3.2836914 -7.6610107 -1.8328552 -12.603302c1.4508057 -4.9422913 4.2332764 -8.138489 8.347382 -9.588593c4.1140747 -1.4500732 8.746582 -1.4190979 13.897522 0.09295654zm1.589508 -5.414734c-7.5165405 -2.2064514 -14.308014 -2.6475525 -20.37445 -1.3232117c-7.2673035 1.603363 -11.949982 5.9785156 -14.047974 13.125458c-1.9131165 6.5170593 -0.7581787 12.2769165 3.4647522 17.279541c4.2356567 5.006378 10.607788 8.758423 19.116333 11.2561035c5.3035583 1.5568542 10.424896 2.2049866 15.364014 1.9444275c4.9518433 -0.25683594 9.015045 -1.4631042 12.189728 -3.6187744c3.1896973 -2.1600037 5.51355 -5.7232666 6.9714966 -10.689819c1.7993164 -6.1293945 0.55688477 -11.708801 -3.727295 -16.73819c-4.2817993 -5.037445 -10.6006775 -8.782623 -18.956604 -11.235535z" fill-rule="evenodd"></path><path fill="#00ff00" d="m566.83026 332.6079c-4.5023193 -1.3216248 -8.161499 -1.821228 -10.977539 -1.4988403c-2.8009644 0.31808472 -4.946411 1.1794739 -6.4362793 2.584137c-1.0947266 1.0469971 -2.022644 2.8666382 -2.7835693 5.4589233l-1.2055054 4.106476l-9.099915 -2.6712952l-1.4935303 5.0876465l9.099976 2.6712952l-9.835754 33.50589l10.244568 3.0072937l9.835815 -33.50589l11.847107 3.4777222l1.4934692 -5.0876465l-11.847107 -3.4777222l1.0454712 -3.5613708c0.68273926 -2.3257751 1.7971802 -3.722229 3.3433838 -4.1893616c1.5462036 -0.46713257 3.883606 -0.2414856 7.012329 0.6769409c1.9077759 0.5600281 3.8944092 1.2747803 5.959961 2.144287l3.2201538 -5.251831c-3.3822632 -1.4665222 -6.5232544 -2.6253967 -9.423035 -3.476654z" fill-rule="evenodd"></path><path fill="#00ff00" d="m624.188 351.73468l-11.3967285 0.91744995l-2.805664 9.557526l-7.5546875 -2.217682l-1.4934692 5.087677l7.5546875 2.217682l-6.5180664 22.20398c-1.1521606 3.9247742 -1.4886475 6.624115 -1.0095825 8.098022c0.4814453 1.4658203 1.6420898 2.8766785 3.4819946 4.232544c1.8399048 1.355835 4.6294556 2.5825806 8.368652 3.6802368c2.2893066 0.6720276 4.940735 1.2398376 7.9542847 1.7034302l0.20812988 -6.2149353c-1.9193726 -0.37924194 -3.451355 -0.7368469 -4.5960083 -1.072876c-1.5262451 -0.44802856 -2.656433 -0.9508362 -3.390686 -1.5084534c-0.7214966 -0.55389404 -1.1884155 -1.1514587 -1.4008179 -1.7927246c-0.199646 -0.6375427 -0.0256958 -1.8890381 0.52197266 -3.7545166l6.624695 -22.567413l10.35907 3.0408936l1.4935303 -5.0876465l-10.35907 -3.0408936l3.9577637 -13.4823z" fill-rule="evenodd"></path><path fill="#00ff00" d="m644.972 356.53323l-15.639038 53.275085l10.301819 3.024109l6.198059 -21.1138c0.88897705 -3.0283813 2.1582642 -5.2345886 3.8078613 -6.6187134c1.6495972 -1.3840942 3.9631348 -2.182953 6.940674 -2.396576c2.9926147 -0.21795654 6.0151367 0.12106323 9.067505 1.0171204c4.0825806 1.1984253 7.017456 2.871338 8.804565 5.0186768c1.8022461 2.1430054 2.2233276 4.849823 1.2631836 8.120483l-7.1794434 24.457092l10.301819 3.024109l7.1795044 -24.457092c1.109436 -3.779419 1.2371826 -6.873352 0.3831787 -9.28186c-0.84124756 -2.4047546 -2.756897 -4.655609 -5.746887 -6.7525635c-2.9875488 -2.105011 -6.732483 -3.8183594 -11.234802 -5.1400146c-7.3257446 -2.1504517 -13.91156 -2.1627502 -19.757446 -0.036865234l5.611328 -19.115082z" fill-rule="evenodd"></path><path fill="#00ff00" d="m729.595 402.2155c5.227234 1.5344543 9.111694 4.0431213 11.653381 7.52594c1.6601562 2.2504272 2.2427368 5.0660706 1.7475586 8.446869l-33.938843 -9.962738c1.3319702 -3.2667542 3.9019775 -5.433258 7.709961 -6.499542c3.8207397 -1.0625305 8.096741 -0.899353 12.827942 0.48947144zm1.4643555 -5.4119873c-8.394043 -2.4640808 -15.750061 -2.6761475 -22.068054 -0.63623047c-6.317932 2.0399475 -10.429871 6.3063354 -12.335876 12.799164c-1.84198 6.2747803 -0.67297363 11.915955 3.50708 16.923553c4.1951294 5.0032654 10.737793 8.809723 19.627869 11.419403c7.058655 2.0720825 13.178284 2.6843262 18.358765 1.836731c5.180542 -0.8475647 9.189819 -2.9994507 12.027893 -6.4556274l-10.399902 -3.9607239c-2.375122 2.3026428 -5.083008 3.691864 -8.123657 4.167633c-3.0406494 0.47576904 -6.449646 0.15924072 -10.22699 -0.94958496c-5.074646 -1.4896545 -8.979126 -3.8594666 -11.713501 -7.1094055c-2.734375 -3.249939 -3.670105 -7.0507507 -2.8070679 -11.402496l45.328125 13.306091c0.26574707 -0.7640686 0.45550537 -1.3399353 0.5692749 -1.7275391c1.8704834 -6.371704 0.7458496 -12.070038 -3.3739014 -17.095001c-4.11969 -5.024933 -10.243042 -8.730286 -18.370056 -11.115967z" fill-rule="evenodd"></path><path fill="#00ff00" d="m257.60614 339.65988l6.624359 59.810516l11.332031 3.3265076l29.715302 -35.36728c1.2680359 -1.4960938 2.6999817 -3.3388062 4.295868 -5.5281067c0.039489746 0.8536377 0.30541992 3.1947937 0.79782104 7.0233765l5.7688293 45.78363l10.702454 3.1417236l38.646545 -46.52124l-11.160339 -3.276123l-23.212585 30.36856c-2.9971313 3.856842 -5.524109 7.3122253 -7.581024 10.36615c0.39279175 -6.279175 0.06347656 -13.204468 -0.9878845 -20.77594l-4.1032715 -30.492737l-13.392395 -3.9313354l-26.529022 31.289673c-0.63757324 0.76016235 -2.8603516 3.6732788 -6.668335 8.73941c0.06765747 -3.9010315 -0.04837036 -7.8822937 -0.34805298 -11.943787l-2.5110168 -38.669678z" fill-rule="evenodd"></path><path fill="#00ff00" d="m403.38257 419.27994l-0.70407104 2.398468c-0.8463135 2.8829956 -2.0396423 4.901001 -3.579956 6.0540466c-2.0117493 1.4883118 -4.7252502 2.3320312 -8.1405945 2.5311584c-3.4129639 0.19107056 -7.103485 -0.2958374 -11.071625 -1.4606628c-4.006256 -1.1760559 -6.8816223 -2.6516418 -8.626038 -4.4268494c-1.73172 -1.7714233 -2.3415527 -3.5293274 -1.8294983 -5.2736816c0.33425903 -1.1386414 1.114624 -2.0323486 2.3411255 -2.6810303c1.2288818 -0.6567688 2.7919922 -0.9697876 4.6893616 -0.93911743c1.8973694 0.030670166 5.0205383 0.47381592 9.369537 1.3294373c7.6775208 1.5169067 13.528107 2.3396606 17.551758 2.4682312zm-7.206909 -23.943604c-5.227234 -1.5344543 -9.958832 -2.427826 -14.194855 -2.6801147c-4.233612 -0.26037598 -7.6474304 0.1453247 -10.241425 1.2171326c-2.5916138 1.0636902 -4.747101 2.8299866 -6.466461 5.298828l9.816895 3.829071c1.9101257 -2.4128418 4.1738586 -3.8184204 6.791168 -4.2167053c2.6323853 -0.40267944 6.3714294 0.10723877 11.217133 1.5296936c5.1890564 1.5232544 8.883026 3.4102173 11.081909 5.6608887c1.6258545 1.661438 2.047638 3.824646 1.2653198 6.4895935c-0.07110596 0.24227905 -0.25732422 0.80599976 -0.55859375 1.6911926c-4.1860046 -0.28146362 -10.530334 -1.3280945 -19.03305 -3.139862c-4.1750183 -0.8835144 -7.3234253 -1.4524841 -9.445221 -1.7069092c-2.8894043 -0.3218994 -5.5729065 -0.33337402 -8.050537 -0.03439331c-2.4649353 0.30270386 -4.6077576 1.0376282 -6.428528 2.204834c-1.8056641 1.1628418 -2.9858704 2.6891174 -3.5405884 4.578827c-0.94589233 3.2221985 0.06982422 6.3974 3.0471191 9.525696c2.9797058 3.1202087 7.8081055 5.6603394 14.4852295 7.6204224c4.0444336 1.1872253 7.9525757 1.8739624 11.724487 2.0601807c3.7845764 0.18997192 7.886902 -0.18466187 12.306915 -1.1239319c-0.22814941 1.9066467 -0.0072021484 3.6950989 0.6628723 5.3654175l10.759705 3.1585083c-0.86343384 -1.8586426 -1.2818604 -3.6568604 -1.255249 -5.394562c0.04171753 -1.7420654 0.95510864 -5.653595 2.7402039 -11.734558l2.5602722 -8.72171c0.8534241 -2.9072266 1.2720337 -4.968445 1.2557678 -6.183716c-0.084198 -1.9719849 -0.7174988 -3.7674866 -1.8999634 -5.3864746c-1.1800842 -1.6270447 -3.2779236 -3.3042297 -6.293518 -5.0315247c-3.0155945 -1.7272949 -7.11792 -3.3525696 -12.307007 -4.875824z" fill-rule="evenodd"></path><path fill="#00ff00" d="m457.98672 413.481c-2.403778 -0.70562744 -4.738434 -0.9173279 -7.003937 -0.6350403c-2.2528076 0.28604126 -4.9638367 1.4506531 -8.133087 3.493866l1.7175293 -5.8507996l-9.2716675 -2.7217102l-11.329254 38.593536l10.301819 3.024109l5.9313354 -20.205261c0.8107605 -2.7618713 2.1298523 -5.1376953 3.9572449 -7.127472c1.2111206 -1.3023071 2.8389893 -2.1182556 4.8835754 -2.4478455c2.046936 -0.337677 4.195984 -0.17611694 6.447113 0.4847107c2.518219 0.7392273 4.897766 1.9508972 7.1386414 3.6349487l5.329956 -5.027191c-3.1740723 -2.4580078 -6.497162 -4.1966248 -9.969269 -5.215851z" fill-rule="evenodd"></path><path fill="#00ff00" d="m497.01926 424.93896c-2.403778 -0.70562744 -4.7384033 -0.91729736 -7.003937 -0.63500977c-2.2528076 0.28601074 -4.9638367 1.4506531 -8.133087 3.493866l1.7175293 -5.8507996l-9.2716675 -2.7217102l-11.329254 38.593536l10.301849 3.024109l5.931305 -20.205292c0.8107605 -2.7618713 2.1298523 -5.1376953 3.9572449 -7.127472c1.2111511 -1.3022766 2.8389893 -2.118225 4.8835754 -2.447815c2.046936 -0.337677 4.195984 -0.17611694 6.447113 0.4847107c2.5182495 0.7392273 4.8977966 1.9508667 7.1386414 3.6349487l5.329956 -5.0272217c-3.1740723 -2.4579773 -6.497162 -4.196594 -9.969269 -5.215851z" fill-rule="evenodd"></path><path fill="#00ff00" d="m517.84216 416.0522l-2.208252 7.522461l10.301819 3.024109l2.208252 -7.522461zm-4.3098145 14.681549l-11.329285 38.593536l10.30188 3.0240784l11.329224 -38.593536z" fill-rule="evenodd"></path><path fill="#00ff00" d="m562.84955 450.1448c5.074646 1.4896545 8.954712 3.966278 11.640137 7.4299316c2.7005615 3.4592896 3.3503418 7.5753174 1.9492798 12.348022c-1.4863892 5.0634155 -4.290161 8.332306 -8.411377 9.80661c-4.121216 1.4743042 -8.73822 1.4610596 -13.850952 -0.039794922c-5.15094 -1.5120544 -9.063965 -3.9940186 -11.739075 -7.4458313c-2.6727295 -3.4599304 -3.2836914 -7.6610107 -1.8328857 -12.6033325c1.4508057 -4.9422913 4.2332764 -8.138489 8.347351 -9.588562c4.1141357 -1.4500732 8.746643 -1.4190979 13.897522 0.09295654zm1.5895386 -5.414734c-7.5165405 -2.206482 -14.307983 -2.6475525 -20.37445 -1.3232117c-7.267273 1.603363 -11.949951 5.9785156 -14.047974 13.125458c-1.9130859 6.5170593 -0.7581787 12.276886 3.4647827 17.279541c4.2356567 5.006378 10.607788 8.758392 19.116333 11.2561035c5.303528 1.5568542 10.424866 2.2049866 15.364014 1.944397c4.9518433 -0.25683594 9.015076 -1.4630737 12.189697 -3.618744c3.1897583 -2.1600342 5.51355 -5.723297 6.9714966 -10.689819c1.7993164 -6.129425 0.55688477 -11.708832 -3.727295 -16.73819c-4.2817993 -5.0374756 -10.600647 -8.782654 -18.956604 -11.235535z" fill-rule="evenodd"></path><path fill="#00ff00" d="m627.28033 463.17712c-2.4037476 -0.70562744 -4.7384033 -0.91729736 -7.0039062 -0.63500977c-2.2528076 0.28601074 -4.963867 1.4506226 -8.133118 3.493866l1.7175293 -5.85083l-9.2716675 -2.7216797l-11.329285 38.593536l10.30188 3.024109l5.9313354 -20.205292c0.81073 -2.7618713 2.1298218 -5.1376953 3.9572144 -7.127472c1.2111206 -1.3022766 2.8389893 -2.1182556 4.883545 -2.4478455c2.046997 -0.337677 4.195984 -0.17608643 6.4471436 0.4847412c2.5182495 0.7392273 4.897766 1.9508667 7.138672 3.6349487l5.329895 -5.0272217c-3.1740723 -2.4580078 -6.4971313 -4.1966248 -9.969238 -5.215851z" fill-rule="evenodd"></path><path fill="#00ff00" d="m650.3925 454.96237l-3.467041 11.810638l-5.1411743 29.160522l6.638977 1.948883l11.265015 -27.362885l3.467041 -11.810638zm-12.994324 45.959686l-2.1868896 7.449768l11.847107 3.4777222l2.1869507 -7.449768z" fill-rule="evenodd"></path><path stroke="#b6d7a8" stroke-width="1.0" stroke-linejoin="round" stroke-linecap="butt" d="m418.63422 193.25385l-1.8455505 6.2868958l27.64328 8.114685l-13.793518 46.988174l11.103088 3.2593231l13.793518 -46.98819l27.757751 8.148285l1.8455505 -6.2868958z" fill-rule="evenodd"></path><path stroke="#b6d7a8" stroke-width="1.0" stroke-linejoin="round" stroke-linecap="butt" d="m495.21124 215.73303l-15.639069 53.275055l10.301819 3.024109l6.1980286 -21.113785c0.88900757 -3.028366 2.1582947 -5.234604 3.8078918 -6.618698c1.6495972 -1.3841095 3.9631348 -2.1829681 6.940674 -2.396576c2.9926147 -0.2179718 6.015106 0.12106323 9.067535 1.0170898c4.0825806 1.1984558 7.017395 2.8713531 8.804565 5.018692c1.8022461 2.1430206 2.2232666 4.8498383 1.2631836 8.120468l-7.1794434 24.457123l10.301819 3.024109l7.1794434 -24.457123c1.1094971 -3.7794037 1.2371826 -6.873352 0.38323975 -9.28183c-0.8413086 -2.40477 -2.756897 -4.6556244 -5.746887 -6.7525635c-2.9876099 -2.1050262 -6.732544 -3.8183594 -11.234802 -5.1400146c-7.3257446 -2.150467 -13.911591 -2.1627655 -19.757446 -0.036880493l5.6112976 -19.115067z" fill-rule="evenodd"></path><path stroke="#b6d7a8" stroke-width="1.0" stroke-linejoin="round" stroke-linecap="butt" d="m579.8342 261.4153c5.227234 1.5344543 9.111694 4.043091 11.653381 7.52594c1.6601562 2.2504272 2.2426758 5.06604 1.7475586 8.446869l-33.938843 -9.962769c1.3319092 -3.2667236 3.9019165 -5.4332275 7.709961 -6.4995117c3.8207397 -1.0625305 8.09668 -0.89938354 12.827942 0.48947144zm1.4643555 -5.4119873c-8.394104 -2.4640808 -15.750122 -2.6761627 -22.068054 -0.63623047c-6.317932 2.0399475 -10.429932 6.306305 -12.3359375 12.799133c-1.84198 6.2747803 -0.6729126 11.915985 3.507141 16.923553c4.1951294 5.0032654 10.737732 8.809723 19.627869 11.419434c7.058655 2.072052 13.178223 2.6843262 18.358765 1.836731c5.180481 -0.8475647 9.189819 -2.9994507 12.027832 -6.4556274l-10.399841 -3.9607544c-2.375122 2.3026733 -5.083008 3.6918945 -8.123657 4.1676636c-3.0407104 0.47576904 -6.449707 0.15924072 -10.227051 -0.9496155c-5.074585 -1.489624 -8.979126 -3.859436 -11.713501 -7.109375c-2.734375 -3.249939 -3.670044 -7.0507812 -2.8070068 -11.402496l45.328125 13.306061c0.26568604 -0.7640686 0.45550537 -1.3399048 0.5692749 -1.7275391c1.8704224 -6.3716736 0.7457886 -12.070007 -3.3739014 -17.09497c-4.11969 -5.0249634 -10.243042 -8.730286 -18.370056 -11.115967z" fill-rule="evenodd"></path><path stroke="#b6d7a8" stroke-width="1.0" stroke-linejoin="round" stroke-linecap="butt" d="m216.52982 230.764l-1.8455353 6.2868958l27.64328 8.114685l-13.793533 46.98819l11.103088 3.2593079l13.793549 -46.988174l27.757751 8.14827l1.84552 -6.2868805z" fill-rule="evenodd"></path><path stroke="#b6d7a8" stroke-width="1.0" stroke-linejoin="round" stroke-linecap="butt" d="m321.95734 298.5396l-0.70407104 2.398468c-0.8463135 2.8830261 -2.0396423 4.9010315 -3.579956 6.054077c-2.0117188 1.4883118 -4.7252502 2.3320312 -8.1405945 2.5311584c-3.4129333 0.19107056 -7.103485 -0.2958374 -11.071594 -1.4606628c-4.0062866 -1.1760559 -6.8816223 -2.6516724 -8.626068 -4.4268494c-1.73172 -1.7714233 -2.3415527 -3.5293274 -1.8294983 -5.2736816c0.33425903 -1.1386719 1.1146545 -2.0323486 2.341156 -2.6810303c1.2288513 -0.6567688 2.7919922 -0.9698181 4.689331 -0.93911743c1.8973694 0.030670166 5.020569 0.47381592 9.369537 1.3294373c7.6775208 1.5169067 13.528107 2.3396606 17.551758 2.4682007zm-7.206909 -23.943573c-5.2272034 -1.5344543 -9.958832 -2.427826 -14.194824 -2.6801147c-4.2336426 -0.26037598 -7.6474304 0.1453247 -10.241425 1.2171326c-2.5916138 1.0637207 -4.747101 2.8299866 -6.466461 5.298828l9.816864 3.829071c1.9101562 -2.4128418 4.173889 -3.8184204 6.7911987 -4.2167053c2.6323853 -0.40264893 6.3714294 0.10723877 11.217102 1.5296936c5.189087 1.5232544 8.883057 3.4102173 11.081909 5.6608887c1.625885 1.661438 2.0476685 3.8246155 1.2653503 6.4895935c-0.07110596 0.24227905 -0.25732422 0.80599976 -0.55862427 1.6911926c-4.1860046 -0.28146362 -10.530334 -1.3280945 -19.03302 -3.139862c-4.175049 -0.8835144 -7.323456 -1.4524841 -9.445221 -1.7069092c-2.8894043 -0.3218994 -5.5729065 -0.33337402 -8.050568 -0.03439331c-2.4649048 0.30270386 -4.6077576 1.0376282 -6.4284973 2.204834c-1.8056946 1.1628418 -2.9859009 2.6891174 -3.540619 4.578827c-0.94589233 3.2221985 0.06982422 6.3974304 3.0471497 9.525696c2.9796753 3.1202087 7.808075 5.6603394 14.485199 7.6204224c4.0444336 1.1872253 7.952606 1.8739624 11.724487 2.0601807c3.784607 0.18997192 7.8869324 -0.18466187 12.306946 -1.1239319c-0.22817993 1.9066162 -0.0072021484 3.6950989 0.6628723 5.3654175l10.759705 3.1585083c-0.86346436 -1.8586426 -1.2818604 -3.6568298 -1.255249 -5.394562c0.04171753 -1.7420654 0.95510864 -5.653595 2.7401733 -11.734558l2.5603027 -8.72171c0.8534241 -2.9072266 1.2720032 -4.9684753 1.2557678 -6.183716c-0.084198 -1.9719849 -0.7175293 -3.7674866 -1.8999939 -5.3864746c-1.1800842 -1.6270447 -3.2779236 -3.3042297 -6.293518 -5.0315247c-3.0155945 -1.7272949 -7.11792 -3.3525696 -12.307007 -4.875824z" fill-rule="evenodd"></path><path stroke="#b6d7a8" stroke-width="1.0" stroke-linejoin="round" stroke-linecap="butt" d="m358.0657 272.3119l-15.639099 53.275055l10.301849 3.024109l15.639069 -53.275085z" fill-rule="evenodd"></path><path stroke="#b6d7a8" stroke-width="1.0" stroke-linejoin="round" stroke-linecap="butt" d="m403.77057 306.56976c5.227234 1.5344543 9.111694 4.043091 11.653381 7.52594c1.6601868 2.2504272 2.2427063 5.06604 1.7475891 8.446869l-33.938843 -9.962769c1.3319397 -3.2667542 3.9019165 -5.433258 7.709961 -6.4995117c3.8207092 -1.0625305 8.09671 -0.89938354 12.827911 0.48947144zm1.464386 -5.4119873c-8.3940735 -2.4640808 -15.750122 -2.676178 -22.068054 -0.63623047c-6.3179626 2.039917 -10.429932 6.306305 -12.335907 12.799133c-1.84198 6.2747803 -0.67297363 11.915955 3.5071106 16.923553c4.1951294 5.0032654 10.737762 8.809723 19.627869 11.419434c7.058655 2.072052 13.178253 2.6842957 18.358765 1.836731c5.1805115 -0.8475952 9.189789 -2.9994507 12.027863 -6.4556274l-10.399872 -3.9607544c-2.375122 2.3026733 -5.083008 3.691864 -8.123688 4.1676636c-3.0406494 0.47576904 -6.449646 0.15924072 -10.22699 -0.9496155c-5.0746155 -1.4896545 -8.979126 -3.859436 -11.713501 -7.109375c-2.7344055 -3.249939 -3.6700745 -7.0507812 -2.8070374 -11.402496l45.328125 13.306061c0.26571655 -0.7640686 0.45547485 -1.3399048 0.5692749 -1.7275391c1.8704224 -6.371704 0.7457886 -12.070007 -3.3739014 -17.09497c-4.11969 -5.0249634 -10.243042 -8.730286 -18.370056 -11.115967z" fill-rule="evenodd"></path><path stroke="#b6d7a8" stroke-width="1.0" stroke-linejoin="round" stroke-linecap="butt" d="m501.11234 335.1839c5.0746155 1.4896545 8.954651 3.9663086 11.640106 7.4299316c2.7005615 3.45932 3.3503418 7.5753174 1.9492798 12.348022c-1.4863892 5.063446 -4.2901917 8.332306 -8.411407 9.806641c-4.1211853 1.4743042 -8.73819 1.461029 -13.850952 -0.03982544c-5.1509094 -1.5120544 -9.063934 -3.993988 -11.739075 -7.4458313c-2.6727295 -3.4599 -3.2836914 -7.6610107 -1.8328552 -12.603302c1.4508057 -4.9422913 4.2332764 -8.138489 8.347382 -9.588593c4.1140747 -1.4500732 8.746582 -1.4190979 13.897522 0.09295654zm1.589508 -5.414734c-7.5165405 -2.2064514 -14.308014 -2.6475525 -20.37445 -1.3232117c-7.2673035 1.603363 -11.949982 5.9785156 -14.047974 13.125458c-1.9131165 6.5170593 -0.7581787 12.2769165 3.4647522 17.279541c4.2356567 5.006378 10.607788 8.758423 19.116333 11.2561035c5.3035583 1.5568542 10.424896 2.2049866 15.364014 1.9444275c4.9518433 -0.25683594 9.015045 -1.4631042 12.189728 -3.6187744c3.1896973 -2.1600037 5.51355 -5.7232666 6.9714966 -10.689819c1.7993164 -6.1293945 0.55688477 -11.708801 -3.727295 -16.73819c-4.2817993 -5.037445 -10.6006775 -8.782623 -18.956604 -11.235535z" fill-rule="evenodd"></path><path stroke="#b6d7a8" stroke-width="1.0" stroke-linejoin="round" stroke-linecap="butt" d="m566.83026 332.6079c-4.5023193 -1.3216248 -8.161499 -1.821228 -10.977539 -1.4988403c-2.8009644 0.31808472 -4.946411 1.1794739 -6.4362793 2.584137c-1.0947266 1.0469971 -2.022644 2.8666382 -2.7835693 5.4589233l-1.2055054 4.106476l-9.099915 -2.6712952l-1.4935303 5.0876465l9.099976 2.6712952l-9.835754 33.50589l10.244568 3.0072937l9.835815 -33.50589l11.847107 3.4777222l1.4934692 -5.0876465l-11.847107 -3.4777222l1.0454712 -3.5613708c0.68273926 -2.3257751 1.7971802 -3.722229 3.3433838 -4.1893616c1.5462036 -0.46713257 3.883606 -0.2414856 7.012329 0.6769409c1.9077759 0.5600281 3.8944092 1.2747803 5.959961 2.144287l3.2201538 -5.251831c-3.3822632 -1.4665222 -6.5232544 -2.6253967 -9.423035 -3.476654z" fill-rule="evenodd"></path><path stroke="#b6d7a8" stroke-width="1.0" stroke-linejoin="round" stroke-linecap="butt" d="m624.188 351.73468l-11.3967285 0.91744995l-2.805664 9.557526l-7.5546875 -2.217682l-1.4934692 5.087677l7.5546875 2.217682l-6.5180664 22.20398c-1.1521606 3.9247742 -1.4886475 6.624115 -1.0095825 8.098022c0.4814453 1.4658203 1.6420898 2.8766785 3.4819946 4.232544c1.8399048 1.355835 4.6294556 2.5825806 8.368652 3.6802368c2.2893066 0.6720276 4.940735 1.2398376 7.9542847 1.7034302l0.20812988 -6.2149353c-1.9193726 -0.37924194 -3.451355 -0.7368469 -4.5960083 -1.072876c-1.5262451 -0.44802856 -2.656433 -0.9508362 -3.390686 -1.5084534c-0.7214966 -0.55389404 -1.1884155 -1.1514587 -1.4008179 -1.7927246c-0.199646 -0.6375427 -0.0256958 -1.8890381 0.52197266 -3.7545166l6.624695 -22.567413l10.35907 3.0408936l1.4935303 -5.0876465l-10.35907 -3.0408936l3.9577637 -13.4823z" fill-rule="evenodd"></path><path stroke="#b6d7a8" stroke-width="1.0" stroke-linejoin="round" stroke-linecap="butt" d="m644.972 356.53323l-15.639038 53.275085l10.301819 3.024109l6.198059 -21.1138c0.88897705 -3.0283813 2.1582642 -5.2345886 3.8078613 -6.6187134c1.6495972 -1.3840942 3.9631348 -2.182953 6.940674 -2.396576c2.9926147 -0.21795654 6.0151367 0.12106323 9.067505 1.0171204c4.0825806 1.1984253 7.017456 2.871338 8.804565 5.0186768c1.8022461 2.1430054 2.2233276 4.849823 1.2631836 8.120483l-7.1794434 24.457092l10.301819 3.024109l7.1795044 -24.457092c1.109436 -3.779419 1.2371826 -6.873352 0.3831787 -9.28186c-0.84124756 -2.4047546 -2.756897 -4.655609 -5.746887 -6.7525635c-2.9875488 -2.105011 -6.732483 -3.8183594 -11.234802 -5.1400146c-7.3257446 -2.1504517 -13.91156 -2.1627502 -19.757446 -0.036865234l5.611328 -19.115082z" fill-rule="evenodd"></path><path stroke="#b6d7a8" stroke-width="1.0" stroke-linejoin="round" stroke-linecap="butt" d="m729.595 402.2155c5.227234 1.5344543 9.111694 4.0431213 11.653381 7.52594c1.6601562 2.2504272 2.2427368 5.0660706 1.7475586 8.446869l-33.938843 -9.962738c1.3319702 -3.2667542 3.9019775 -5.433258 7.709961 -6.499542c3.8207397 -1.0625305 8.096741 -0.899353 12.827942 0.48947144zm1.4643555 -5.4119873c-8.394043 -2.4640808 -15.750061 -2.6761475 -22.068054 -0.63623047c-6.317932 2.0399475 -10.429871 6.3063354 -12.335876 12.799164c-1.84198 6.2747803 -0.67297363 11.915955 3.50708 16.923553c4.1951294 5.0032654 10.737793 8.809723 19.627869 11.419403c7.058655 2.0720825 13.178284 2.6843262 18.358765 1.836731c5.180542 -0.8475647 9.189819 -2.9994507 12.027893 -6.4556274l-10.399902 -3.9607239c-2.375122 2.3026428 -5.083008 3.691864 -8.123657 4.167633c-3.0406494 0.47576904 -6.449646 0.15924072 -10.22699 -0.94958496c-5.074646 -1.4896545 -8.979126 -3.8594666 -11.713501 -7.1094055c-2.734375 -3.249939 -3.670105 -7.0507507 -2.8070679 -11.402496l45.328125 13.306091c0.26574707 -0.7640686 0.45550537 -1.3399353 0.5692749 -1.7275391c1.8704834 -6.371704 0.7458496 -12.070038 -3.3739014 -17.095001c-4.11969 -5.024933 -10.243042 -8.730286 -18.370056 -11.115967z" fill-rule="evenodd"></path><path stroke="#b6d7a8" stroke-width="1.0" stroke-linejoin="round" stroke-linecap="butt" d="m257.60614 339.65988l6.624359 59.810516l11.332031 3.3265076l29.715302 -35.36728c1.2680359 -1.4960938 2.6999817 -3.3388062 4.295868 -5.5281067c0.039489746 0.8536377 0.30541992 3.1947937 0.79782104 7.0233765l5.7688293 45.78363l10.702454 3.1417236l38.646545 -46.52124l-11.160339 -3.276123l-23.212585 30.36856c-2.9971313 3.856842 -5.524109 7.3122253 -7.581024 10.36615c0.39279175 -6.279175 0.06347656 -13.204468 -0.9878845 -20.77594l-4.1032715 -30.492737l-13.392395 -3.9313354l-26.529022 31.289673c-0.63757324 0.76016235 -2.8603516 3.6732788 -6.668335 8.73941c0.06765747 -3.9010315 -0.04837036 -7.8822937 -0.34805298 -11.943787l-2.5110168 -38.669678z" fill-rule="evenodd"></path><path stroke="#b6d7a8" stroke-width="1.0" stroke-linejoin="round" stroke-linecap="butt" d="m403.38257 419.27994l-0.70407104 2.398468c-0.8463135 2.8829956 -2.0396423 4.901001 -3.579956 6.0540466c-2.0117493 1.4883118 -4.7252502 2.3320312 -8.1405945 2.5311584c-3.4129639 0.19107056 -7.103485 -0.2958374 -11.071625 -1.4606628c-4.006256 -1.1760559 -6.8816223 -2.6516418 -8.626038 -4.4268494c-1.73172 -1.7714233 -2.3415527 -3.5293274 -1.8294983 -5.2736816c0.33425903 -1.1386414 1.114624 -2.0323486 2.3411255 -2.6810303c1.2288818 -0.6567688 2.7919922 -0.9697876 4.6893616 -0.93911743c1.8973694 0.030670166 5.0205383 0.47381592 9.369537 1.3294373c7.6775208 1.5169067 13.528107 2.3396606 17.551758 2.4682312zm-7.206909 -23.943604c-5.227234 -1.5344543 -9.958832 -2.427826 -14.194855 -2.6801147c-4.233612 -0.26037598 -7.6474304 0.1453247 -10.241425 1.2171326c-2.5916138 1.0636902 -4.747101 2.8299866 -6.466461 5.298828l9.816895 3.829071c1.9101257 -2.4128418 4.1738586 -3.8184204 6.791168 -4.2167053c2.6323853 -0.40267944 6.3714294 0.10723877 11.217133 1.5296936c5.1890564 1.5232544 8.883026 3.4102173 11.081909 5.6608887c1.6258545 1.661438 2.047638 3.824646 1.2653198 6.4895935c-0.07110596 0.24227905 -0.25732422 0.80599976 -0.55859375 1.6911926c-4.1860046 -0.28146362 -10.530334 -1.3280945 -19.03305 -3.139862c-4.1750183 -0.8835144 -7.3234253 -1.4524841 -9.445221 -1.7069092c-2.8894043 -0.3218994 -5.5729065 -0.33337402 -8.050537 -0.03439331c-2.4649353 0.30270386 -4.6077576 1.0376282 -6.428528 2.204834c-1.8056641 1.1628418 -2.9858704 2.6891174 -3.5405884 4.578827c-0.94589233 3.2221985 0.06982422 6.3974 3.0471191 9.525696c2.9797058 3.1202087 7.8081055 5.6603394 14.4852295 7.6204224c4.0444336 1.1872253 7.9525757 1.8739624 11.724487 2.0601807c3.7845764 0.18997192 7.886902 -0.18466187 12.306915 -1.1239319c-0.22814941 1.9066467 -0.0072021484 3.6950989 0.6628723 5.3654175l10.759705 3.1585083c-0.86343384 -1.8586426 -1.2818604 -3.6568604 -1.255249 -5.394562c0.04171753 -1.7420654 0.95510864 -5.653595 2.7402039 -11.734558l2.5602722 -8.72171c0.8534241 -2.9072266 1.2720337 -4.968445 1.2557678 -6.183716c-0.084198 -1.9719849 -0.7174988 -3.7674866 -1.8999634 -5.3864746c-1.1800842 -1.6270447 -3.2779236 -3.3042297 -6.293518 -5.0315247c-3.0155945 -1.7272949 -7.11792 -3.3525696 -12.307007 -4.875824z" fill-rule="evenodd"></path><path stroke="#b6d7a8" stroke-width="1.0" stroke-linejoin="round" stroke-linecap="butt" d="m457.98672 413.481c-2.403778 -0.70562744 -4.738434 -0.9173279 -7.003937 -0.6350403c-2.2528076 0.28604126 -4.9638367 1.4506531 -8.133087 3.493866l1.7175293 -5.8507996l-9.2716675 -2.7217102l-11.329254 38.593536l10.301819 3.024109l5.9313354 -20.205261c0.8107605 -2.7618713 2.1298523 -5.1376953 3.9572449 -7.127472c1.2111206 -1.3023071 2.8389893 -2.1182556 4.8835754 -2.4478455c2.046936 -0.337677 4.195984 -0.17611694 6.447113 0.4847107c2.518219 0.7392273 4.897766 1.9508972 7.1386414 3.6349487l5.329956 -5.027191c-3.1740723 -2.4580078 -6.497162 -4.1966248 -9.969269 -5.215851z" fill-rule="evenodd"></path><path stroke="#b6d7a8" stroke-width="1.0" stroke-linejoin="round" stroke-linecap="butt" d="m497.01926 424.93896c-2.403778 -0.70562744 -4.7384033 -0.91729736 -7.003937 -0.63500977c-2.2528076 0.28601074 -4.9638367 1.4506531 -8.133087 3.493866l1.7175293 -5.8507996l-9.2716675 -2.7217102l-11.329254 38.593536l10.301849 3.024109l5.931305 -20.205292c0.8107605 -2.7618713 2.1298523 -5.1376953 3.9572449 -7.127472c1.2111511 -1.3022766 2.8389893 -2.118225 4.8835754 -2.447815c2.046936 -0.337677 4.195984 -0.17611694 6.447113 0.4847107c2.5182495 0.7392273 4.8977966 1.9508667 7.1386414 3.6349487l5.329956 -5.0272217c-3.1740723 -2.4579773 -6.497162 -4.196594 -9.969269 -5.215851z" fill-rule="evenodd"></path><path stroke="#b6d7a8" stroke-width="1.0" stroke-linejoin="round" stroke-linecap="butt" d="m517.84216 416.0522l-2.208252 7.522461l10.301819 3.024109l2.208252 -7.522461zm-4.3098145 14.681549l-11.329285 38.593536l10.30188 3.0240784l11.329224 -38.593536z" fill-rule="evenodd"></path><path stroke="#b6d7a8" stroke-width="1.0" stroke-linejoin="round" stroke-linecap="butt" d="m562.84955 450.1448c5.074646 1.4896545 8.954712 3.966278 11.640137 7.4299316c2.7005615 3.4592896 3.3503418 7.5753174 1.9492798 12.348022c-1.4863892 5.0634155 -4.290161 8.332306 -8.411377 9.80661c-4.121216 1.4743042 -8.73822 1.4610596 -13.850952 -0.039794922c-5.15094 -1.5120544 -9.063965 -3.9940186 -11.739075 -7.4458313c-2.6727295 -3.4599304 -3.2836914 -7.6610107 -1.8328857 -12.6033325c1.4508057 -4.9422913 4.2332764 -8.138489 8.347351 -9.588562c4.1141357 -1.4500732 8.746643 -1.4190979 13.897522 0.09295654zm1.5895386 -5.414734c-7.5165405 -2.206482 -14.307983 -2.6475525 -20.37445 -1.3232117c-7.267273 1.603363 -11.949951 5.9785156 -14.047974 13.125458c-1.9130859 6.5170593 -0.7581787 12.276886 3.4647827 17.279541c4.2356567 5.006378 10.607788 8.758392 19.116333 11.2561035c5.303528 1.5568542 10.424866 2.2049866 15.364014 1.944397c4.9518433 -0.25683594 9.015076 -1.4630737 12.189697 -3.618744c3.1897583 -2.1600342 5.51355 -5.723297 6.9714966 -10.689819c1.7993164 -6.129425 0.55688477 -11.708832 -3.727295 -16.73819c-4.2817993 -5.0374756 -10.600647 -8.782654 -18.956604 -11.235535z" fill-rule="evenodd"></path><path stroke="#b6d7a8" stroke-width="1.0" stroke-linejoin="round" stroke-linecap="butt" d="m627.28033 463.17712c-2.4037476 -0.70562744 -4.7384033 -0.91729736 -7.0039062 -0.63500977c-2.2528076 0.28601074 -4.963867 1.4506226 -8.133118 3.493866l1.7175293 -5.85083l-9.2716675 -2.7216797l-11.329285 38.593536l10.30188 3.024109l5.9313354 -20.205292c0.81073 -2.7618713 2.1298218 -5.1376953 3.9572144 -7.127472c1.2111206 -1.3022766 2.8389893 -2.1182556 4.883545 -2.4478455c2.046997 -0.337677 4.195984 -0.17608643 6.4471436 0.4847412c2.5182495 0.7392273 4.897766 1.9508667 7.138672 3.6349487l5.329895 -5.0272217c-3.1740723 -2.4580078 -6.4971313 -4.1966248 -9.969238 -5.215851z" fill-rule="evenodd"></path><path stroke="#b6d7a8" stroke-width="1.0" stroke-linejoin="round" stroke-linecap="butt" d="m650.3925 454.96237l-3.467041 11.810638l-5.1411743 29.160522l6.638977 1.948883l11.265015 -27.362885l3.467041 -11.810638zm-12.994324 45.959686l-2.1868896 7.449768l11.847107 3.4777222l2.1869507 -7.449768z" fill-rule="evenodd"></path></g></svg>

